<mxfile host="www.draw.io" modified="2019-11-01T01:12:16.958Z" agent="Mozilla/5.0 (Windows NT 10.0; Win64; x64) AppleWebKit/537.36 (KHTML, like Gecko) Chrome/77.0.3865.120 Safari/537.36" etag="mQfter4HzPQtKiFqyWeo" version="12.1.9" type="github" pages="1">
  <diagram id="WBMUkLNgIVIr2MSPWF_K" name="Page-1">
    <mxGraphModel dx="1280" dy="668" grid="1" gridSize="10" guides="1" tooltips="1" connect="1" arrows="1" fold="1" page="0" pageScale="1" pageWidth="827" pageHeight="1169" math="0" shadow="0">
      <root>
        <mxCell id="0"/>
        <mxCell id="1" parent="0"/>
        <mxCell id="GONr5biRRsEhFtbQjJus-20" style="edgeStyle=none;rounded=0;orthogonalLoop=1;jettySize=auto;html=1;entryX=0;entryY=0.5;entryDx=0;entryDy=0;endArrow=none;endFill=0;" edge="1" parent="1" source="GONr5biRRsEhFtbQjJus-24" target="GONr5biRRsEhFtbQjJus-5">
          <mxGeometry relative="1" as="geometry"/>
        </mxCell>
        <mxCell id="GONr5biRRsEhFtbQjJus-1" value="Jogador" style="rounded=1;whiteSpace=wrap;html=1;" vertex="1" parent="1">
          <mxGeometry x="220" y="230" width="120" height="60" as="geometry"/>
        </mxCell>
        <mxCell id="GONr5biRRsEhFtbQjJus-21" style="edgeStyle=none;rounded=0;orthogonalLoop=1;jettySize=auto;html=1;entryX=0.5;entryY=0;entryDx=0;entryDy=0;endArrow=none;endFill=0;" edge="1" parent="1" source="GONr5biRRsEhFtbQjJus-2" target="GONr5biRRsEhFtbQjJus-5">
          <mxGeometry relative="1" as="geometry"/>
        </mxCell>
        <mxCell id="GONr5biRRsEhFtbQjJus-2" value="Estádio" style="rounded=1;whiteSpace=wrap;html=1;" vertex="1" parent="1">
          <mxGeometry x="670" y="90" width="120" height="60" as="geometry"/>
        </mxCell>
        <mxCell id="GONr5biRRsEhFtbQjJus-19" style="edgeStyle=none;rounded=0;orthogonalLoop=1;jettySize=auto;html=1;endArrow=none;endFill=0;" edge="1" parent="1" source="GONr5biRRsEhFtbQjJus-3" target="GONr5biRRsEhFtbQjJus-1">
          <mxGeometry relative="1" as="geometry"/>
        </mxCell>
        <mxCell id="GONr5biRRsEhFtbQjJus-3" value="Time" style="rounded=1;whiteSpace=wrap;html=1;" vertex="1" parent="1">
          <mxGeometry x="220" y="100" width="120" height="60" as="geometry"/>
        </mxCell>
        <mxCell id="GONr5biRRsEhFtbQjJus-8" style="rounded=0;orthogonalLoop=1;jettySize=auto;html=1;entryX=0.5;entryY=0;entryDx=0;entryDy=0;endArrow=none;endFill=0;" edge="1" parent="1" source="GONr5biRRsEhFtbQjJus-5" target="GONr5biRRsEhFtbQjJus-7">
          <mxGeometry relative="1" as="geometry"/>
        </mxCell>
        <mxCell id="GONr5biRRsEhFtbQjJus-12" style="edgeStyle=none;rounded=0;orthogonalLoop=1;jettySize=auto;html=1;entryX=0;entryY=0.5;entryDx=0;entryDy=0;endArrow=none;endFill=0;" edge="1" parent="1" source="GONr5biRRsEhFtbQjJus-5" target="GONr5biRRsEhFtbQjJus-11">
          <mxGeometry relative="1" as="geometry"/>
        </mxCell>
        <mxCell id="GONr5biRRsEhFtbQjJus-5" value="Jogo" style="rounded=1;whiteSpace=wrap;html=1;" vertex="1" parent="1">
          <mxGeometry x="670" y="220" width="120" height="60" as="geometry"/>
        </mxCell>
        <mxCell id="GONr5biRRsEhFtbQjJus-7" value="Data" style="ellipse;whiteSpace=wrap;html=1;" vertex="1" parent="1">
          <mxGeometry x="850" y="280" width="120" height="40" as="geometry"/>
        </mxCell>
        <mxCell id="GONr5biRRsEhFtbQjJus-17" style="edgeStyle=none;rounded=0;orthogonalLoop=1;jettySize=auto;html=1;entryX=0.5;entryY=0;entryDx=0;entryDy=0;endArrow=none;endFill=0;exitX=0.5;exitY=1;exitDx=0;exitDy=0;" edge="1" parent="1" source="GONr5biRRsEhFtbQjJus-24" target="GONr5biRRsEhFtbQjJus-15">
          <mxGeometry relative="1" as="geometry">
            <mxPoint x="400" y="380" as="sourcePoint"/>
          </mxGeometry>
        </mxCell>
        <mxCell id="GONr5biRRsEhFtbQjJus-10" value="Lesões" style="rounded=1;whiteSpace=wrap;html=1;" vertex="1" parent="1">
          <mxGeometry x="700" y="360" width="120" height="60" as="geometry"/>
        </mxCell>
        <mxCell id="GONr5biRRsEhFtbQjJus-11" value="Temporada -fase" style="ellipse;whiteSpace=wrap;html=1;" vertex="1" parent="1">
          <mxGeometry x="840" y="170" width="120" height="40" as="geometry"/>
        </mxCell>
        <mxCell id="GONr5biRRsEhFtbQjJus-26" style="edgeStyle=none;rounded=0;orthogonalLoop=1;jettySize=auto;html=1;entryX=0.5;entryY=1;entryDx=0;entryDy=0;endArrow=none;endFill=0;" edge="1" parent="1" source="GONr5biRRsEhFtbQjJus-14" target="GONr5biRRsEhFtbQjJus-24">
          <mxGeometry relative="1" as="geometry"/>
        </mxCell>
        <mxCell id="GONr5biRRsEhFtbQjJus-14" value="Pontos" style="ellipse;whiteSpace=wrap;html=1;" vertex="1" parent="1">
          <mxGeometry x="530" y="370" width="120" height="40" as="geometry"/>
        </mxCell>
        <mxCell id="GONr5biRRsEhFtbQjJus-15" value="Jardas" style="ellipse;whiteSpace=wrap;html=1;" vertex="1" parent="1">
          <mxGeometry x="360" y="370" width="120" height="40" as="geometry"/>
        </mxCell>
        <mxCell id="GONr5biRRsEhFtbQjJus-23" style="edgeStyle=none;rounded=0;orthogonalLoop=1;jettySize=auto;html=1;endArrow=none;endFill=0;" edge="1" parent="1" source="GONr5biRRsEhFtbQjJus-22" target="GONr5biRRsEhFtbQjJus-3">
          <mxGeometry relative="1" as="geometry"/>
        </mxCell>
        <mxCell id="GONr5biRRsEhFtbQjJus-22" value="Conferência" style="ellipse;whiteSpace=wrap;html=1;" vertex="1" parent="1">
          <mxGeometry x="40" y="110" width="120" height="40" as="geometry"/>
        </mxCell>
        <mxCell id="GONr5biRRsEhFtbQjJus-25" style="edgeStyle=none;rounded=0;orthogonalLoop=1;jettySize=auto;html=1;entryX=1;entryY=0.5;entryDx=0;entryDy=0;endArrow=none;endFill=0;" edge="1" parent="1" source="GONr5biRRsEhFtbQjJus-24" target="GONr5biRRsEhFtbQjJus-1">
          <mxGeometry relative="1" as="geometry"/>
        </mxCell>
        <mxCell id="GONr5biRRsEhFtbQjJus-24" value="Jogadas&amp;nbsp;&amp;nbsp;" style="shape=hexagon;perimeter=hexagonPerimeter2;whiteSpace=wrap;html=1;" vertex="1" parent="1">
          <mxGeometry x="440" y="210" width="120" height="80" as="geometry"/>
        </mxCell>
        <mxCell id="GONr5biRRsEhFtbQjJus-28" style="edgeStyle=none;rounded=0;orthogonalLoop=1;jettySize=auto;html=1;entryX=0;entryY=0.5;entryDx=0;entryDy=0;endArrow=none;endFill=0;" edge="1" parent="1" source="GONr5biRRsEhFtbQjJus-27" target="GONr5biRRsEhFtbQjJus-1">
          <mxGeometry relative="1" as="geometry"/>
        </mxCell>
        <mxCell id="GONr5biRRsEhFtbQjJus-27" value="Posição" style="ellipse;whiteSpace=wrap;html=1;" vertex="1" parent="1">
          <mxGeometry x="40" y="240" width="120" height="40" as="geometry"/>
        </mxCell>
        <mxCell id="GONr5biRRsEhFtbQjJus-30" style="edgeStyle=none;rounded=0;orthogonalLoop=1;jettySize=auto;html=1;entryX=0;entryY=0.5;entryDx=0;entryDy=0;endArrow=none;endFill=0;" edge="1" parent="1" source="GONr5biRRsEhFtbQjJus-29" target="GONr5biRRsEhFtbQjJus-1">
          <mxGeometry relative="1" as="geometry"/>
        </mxCell>
        <mxCell id="GONr5biRRsEhFtbQjJus-29" value="Data entrada" style="ellipse;whiteSpace=wrap;html=1;" vertex="1" parent="1">
          <mxGeometry x="40" y="310" width="120" height="40" as="geometry"/>
        </mxCell>
      </root>
    </mxGraphModel>
  </diagram>
</mxfile>
